<?xml version="1.0" standalone="no"?>
<!DOCTYPE svg PUBLIC "-//W3C//DTD SVG 20010904//EN"
 "http://www.w3.org/TR/2001/REC-SVG-20010904/DTD/svg10.dtd">
<svg version="1.0" xmlns="http://www.w3.org/2000/svg"
 width="440.000000pt" height="482.000000pt" viewBox="0 0 440.000000 482.000000"
 preserveAspectRatio="xMidYMid meet">

<g transform="translate(0.000000,482.000000) scale(0.100000,-0.100000)"
fill="#000000" stroke="none">
<path d="M1825 4431 c-38 -10 -92 -27 -119 -39 -27 -12 -54 -22 -61 -22 -19 0
-136 -93 -185 -147 -25 -28 -58 -72 -74 -98 -97 -158 -175 -447 -193 -712 l-6
-83 -71 0 c-88 -1 -281 -40 -321 -65 -138 -88 -180 -141 -241 -312 -55 -152
-63 -186 -86 -378 -30 -252 -33 -776 -5 -905 42 -192 90 -287 180 -358 34 -27
81 -59 104 -71 64 -32 185 -69 273 -83 92 -14 84 -1 95 -168 3 -52 12 -123 20
-158 8 -35 15 -75 15 -89 0 -39 89 -193 141 -243 25 -25 76 -60 112 -78 59
-29 82 -34 194 -44 268 -21 393 4 492 102 59 58 83 109 111 241 9 43 30 341
30 435 l0 41 48 -8 c26 -4 72 -10 103 -14 l57 -6 -1 -107 c-2 -200 42 -333
137 -419 80 -72 209 -122 316 -122 123 0 289 66 368 147 76 78 162 288 191
467 45 273 73 713 60 936 -5 79 -13 258 -18 398 l-9 254 38 56 c88 129 121
345 75 486 -7 22 -23 71 -34 108 -50 160 -129 265 -251 334 -40 22 -50 33 -55
63 -3 19 -38 99 -77 177 -62 122 -82 152 -147 220 -89 92 -193 151 -356 203
-55 17 -118 38 -141 46 -68 24 -197 34 -424 33 -169 0 -230 -4 -285 -18z m640
-214 c22 -8 81 -27 130 -42 128 -39 253 -105 296 -157 38 -46 124 -196 117
-204 -3 -2 -36 2 -74 10 -112 24 -257 29 -439 16 -326 -22 -400 -52 -517 -208
-74 -99 -91 -150 -96 -295 -3 -92 0 -153 12 -220 38 -210 38 -210 100 -335 34
-69 142 -180 218 -225 79 -46 213 -69 393 -69 226 0 508 36 618 78 20 8 42 14
47 14 6 0 10 -43 11 -102 0 -57 6 -204 12 -328 14 -261 7 -476 -23 -746 -32
-287 -52 -377 -117 -515 l-40 -84 -74 -35 c-101 -47 -187 -48 -274 -5 -49 25
-64 38 -82 75 -25 51 -41 170 -35 270 l4 65 70 23 c72 24 159 73 191 110 25
28 19 66 -12 70 -13 2 -33 -1 -45 -6 -64 -31 -345 -33 -533 -3 -188 30 -217
29 -257 -11 -37 -37 -37 -34 -56 -387 -10 -181 -17 -231 -43 -303 -17 -48 -17
-48 -79 -70 -47 -17 -70 -19 -206 -13 -140 7 -158 10 -204 34 -94 49 -138 177
-159 458 -8 114 -8 190 1 305 25 322 29 445 29 828 1 233 7 489 16 625 8 126
19 307 25 400 13 215 24 297 62 465 34 153 71 250 128 338 39 59 115 132 139
132 7 0 26 8 44 17 90 47 138 53 407 49 200 -2 264 -6 295 -19z m492 -611
c127 -27 246 -71 300 -112 45 -34 98 -142 123 -251 7 -28 5 -33 -19 -42 -61
-24 -161 -43 -299 -56 -82 -8 -180 -19 -218 -25 -95 -16 -241 -13 -333 5 -70
15 -236 86 -271 117 -37 32 -51 71 -64 181 -12 107 -12 113 7 134 11 12 34 25
51 28 17 4 49 13 71 21 50 18 286 34 427 28 59 -2 160 -15 225 -28z m-1787
-523 c0 -21 -7 -130 -15 -243 -9 -126 -15 -360 -15 -605 -1 -366 -5 -496 -26
-779 l-7 -98 -50 6 c-90 12 -240 69 -287 108 -38 32 -75 121 -102 243 -22 101
-16 619 10 835 20 170 26 197 71 325 40 112 61 149 103 179 46 33 167 63 261
65 l57 1 0 -37z"/>
</g>
</svg>
